<mxfile host="Electron" modified="2025-02-17T02:24:04.039Z" agent="Mozilla/5.0 (Windows NT 10.0; Win64; x64) AppleWebKit/537.36 (KHTML, like Gecko) draw.io/24.4.13 Chrome/124.0.6367.207 Electron/30.0.6 Safari/537.36" etag="LnelQH8iZGLNMm0Pcj_a" version="24.4.13" type="device">
  <diagram id="C5RBs43oDa-KdzZeNtuy" name="Page-1">
    <mxGraphModel dx="923" dy="742" grid="1" gridSize="10" guides="1" tooltips="1" connect="1" arrows="1" fold="1" page="1" pageScale="1" pageWidth="827" pageHeight="1169" math="0" shadow="0">
      <root>
        <mxCell id="WIyWlLk6GJQsqaUBKTNV-0" />
        <mxCell id="WIyWlLk6GJQsqaUBKTNV-1" parent="WIyWlLk6GJQsqaUBKTNV-0" />
        <mxCell id="6fnRTUx4v9x85AcMWszh-44" value="" style="rounded=0;whiteSpace=wrap;html=1;" vertex="1" parent="WIyWlLk6GJQsqaUBKTNV-1">
          <mxGeometry x="269" y="40" width="290" height="240" as="geometry" />
        </mxCell>
        <mxCell id="6fnRTUx4v9x85AcMWszh-35" value="" style="rounded=0;whiteSpace=wrap;html=1;" vertex="1" parent="WIyWlLk6GJQsqaUBKTNV-1">
          <mxGeometry x="269" y="350" width="290" height="210" as="geometry" />
        </mxCell>
        <mxCell id="6fnRTUx4v9x85AcMWszh-27" value="" style="rounded=0;whiteSpace=wrap;html=1;" vertex="1" parent="WIyWlLk6GJQsqaUBKTNV-1">
          <mxGeometry x="299" y="649" width="230" height="520" as="geometry" />
        </mxCell>
        <mxCell id="6fnRTUx4v9x85AcMWszh-23" value="" style="edgeStyle=orthogonalEdgeStyle;rounded=0;orthogonalLoop=1;jettySize=auto;html=1;entryX=0.5;entryY=0;entryDx=0;entryDy=0;" edge="1" parent="WIyWlLk6GJQsqaUBKTNV-1" source="6fnRTUx4v9x85AcMWszh-11" target="6fnRTUx4v9x85AcMWszh-19">
          <mxGeometry relative="1" as="geometry" />
        </mxCell>
        <mxCell id="6fnRTUx4v9x85AcMWszh-11" value="FacilityModel" style="swimlane;fontStyle=1;align=center;verticalAlign=top;childLayout=stackLayout;horizontal=1;startSize=26;horizontalStack=0;resizeParent=1;resizeParentMax=0;resizeLast=0;collapsible=1;marginBottom=0;whiteSpace=wrap;html=1;" vertex="1" parent="WIyWlLk6GJQsqaUBKTNV-1">
          <mxGeometry x="319" y="679" width="190" height="130" as="geometry" />
        </mxCell>
        <mxCell id="6fnRTUx4v9x85AcMWszh-12" value="+ List&amp;lt;facilityClass&amp;gt; record_list&amp;nbsp;" style="text;strokeColor=none;fillColor=none;align=left;verticalAlign=top;spacingLeft=4;spacingRight=4;overflow=hidden;rotatable=0;points=[[0,0.5],[1,0.5]];portConstraint=eastwest;whiteSpace=wrap;html=1;" vertex="1" parent="6fnRTUx4v9x85AcMWszh-11">
          <mxGeometry y="26" width="190" height="26" as="geometry" />
        </mxCell>
        <mxCell id="6fnRTUx4v9x85AcMWszh-13" value="" style="line;strokeWidth=1;fillColor=none;align=left;verticalAlign=middle;spacingTop=-1;spacingLeft=3;spacingRight=3;rotatable=0;labelPosition=right;points=[];portConstraint=eastwest;strokeColor=inherit;" vertex="1" parent="6fnRTUx4v9x85AcMWszh-11">
          <mxGeometry y="52" width="190" height="8" as="geometry" />
        </mxCell>
        <mxCell id="6fnRTUx4v9x85AcMWszh-14" value="&lt;div&gt;+ load_from_csv()&amp;nbsp;&lt;/div&gt;+ load_one_from_csv(index: int)&lt;div&gt;+save_facilitites()&amp;nbsp;&lt;/div&gt;" style="text;strokeColor=none;fillColor=none;align=left;verticalAlign=top;spacingLeft=4;spacingRight=4;overflow=hidden;rotatable=0;points=[[0,0.5],[1,0.5]];portConstraint=eastwest;whiteSpace=wrap;html=1;" vertex="1" parent="6fnRTUx4v9x85AcMWszh-11">
          <mxGeometry y="60" width="190" height="70" as="geometry" />
        </mxCell>
        <mxCell id="6fnRTUx4v9x85AcMWszh-19" value="FacilityClass" style="swimlane;fontStyle=1;align=center;verticalAlign=top;childLayout=stackLayout;horizontal=1;startSize=26;horizontalStack=0;resizeParent=1;resizeParentMax=0;resizeLast=0;collapsible=1;marginBottom=0;whiteSpace=wrap;html=1;" vertex="1" parent="WIyWlLk6GJQsqaUBKTNV-1">
          <mxGeometry x="319" y="889" width="190" height="258" as="geometry" />
        </mxCell>
        <mxCell id="6fnRTUx4v9x85AcMWszh-20" value="+ String : region&lt;div&gt;+ String : district&lt;br&gt;&lt;/div&gt;&lt;div&gt;+ String : liscenceNum&lt;br&gt;&lt;/div&gt;&lt;div&gt;+ String : facilityName&lt;div&gt;+ String : facilityType&lt;br&gt;&lt;/div&gt;&lt;div&gt;+ String :&amp;nbsp;&lt;span style=&quot;background-color: initial;&quot;&gt;facilityAddress1&lt;/span&gt;&lt;/div&gt;&lt;/div&gt;&lt;div&gt;+ String : facilityAddress2&lt;div&gt;+ String : facilityAddress3&lt;br&gt;&lt;/div&gt;&lt;div&gt;+ int: maxNumOfChildren&lt;/div&gt;&lt;div&gt;+ int: maxNumInfants&lt;br&gt;&lt;/div&gt;&lt;div&gt;+ int: maxNumPreChildren&lt;br&gt;&lt;/div&gt;&lt;div&gt;+ int: maxNumSAgeChildren&lt;br&gt;&lt;/div&gt;&lt;div&gt;+ String : LangOfService&lt;/div&gt;&lt;div&gt;+ String : operatorId&lt;br&gt;&lt;/div&gt;&lt;div&gt;+ String : designatedFacility&lt;/div&gt;&lt;/div&gt;" style="text;strokeColor=none;fillColor=none;align=left;verticalAlign=top;spacingLeft=4;spacingRight=4;overflow=hidden;rotatable=0;points=[[0,0.5],[1,0.5]];portConstraint=eastwest;whiteSpace=wrap;html=1;" vertex="1" parent="6fnRTUx4v9x85AcMWszh-19">
          <mxGeometry y="26" width="190" height="224" as="geometry" />
        </mxCell>
        <mxCell id="6fnRTUx4v9x85AcMWszh-21" value="" style="line;strokeWidth=1;fillColor=none;align=left;verticalAlign=middle;spacingTop=-1;spacingLeft=3;spacingRight=3;rotatable=0;labelPosition=right;points=[];portConstraint=eastwest;strokeColor=inherit;" vertex="1" parent="6fnRTUx4v9x85AcMWszh-19">
          <mxGeometry y="250" width="190" height="8" as="geometry" />
        </mxCell>
        <mxCell id="6fnRTUx4v9x85AcMWszh-24" value="Model contains class objects" style="text;html=1;align=center;verticalAlign=middle;whiteSpace=wrap;rounded=0;" vertex="1" parent="WIyWlLk6GJQsqaUBKTNV-1">
          <mxGeometry x="409" y="839" width="110" height="30" as="geometry" />
        </mxCell>
        <mxCell id="6fnRTUx4v9x85AcMWszh-26" value="Model" style="rounded=0;whiteSpace=wrap;html=1;" vertex="1" parent="WIyWlLk6GJQsqaUBKTNV-1">
          <mxGeometry x="299" y="619" width="50" height="30" as="geometry" />
        </mxCell>
        <mxCell id="6fnRTUx4v9x85AcMWszh-29" value="FacilityController" style="swimlane;fontStyle=1;align=center;verticalAlign=top;childLayout=stackLayout;horizontal=1;startSize=26;horizontalStack=0;resizeParent=1;resizeParentMax=0;resizeLast=0;collapsible=1;marginBottom=0;whiteSpace=wrap;html=1;" vertex="1" parent="WIyWlLk6GJQsqaUBKTNV-1">
          <mxGeometry x="294" y="380" width="240" height="150" as="geometry" />
        </mxCell>
        <mxCell id="6fnRTUx4v9x85AcMWszh-31" value="" style="line;strokeWidth=1;fillColor=none;align=left;verticalAlign=middle;spacingTop=-1;spacingLeft=3;spacingRight=3;rotatable=0;labelPosition=right;points=[];portConstraint=eastwest;strokeColor=inherit;" vertex="1" parent="6fnRTUx4v9x85AcMWszh-29">
          <mxGeometry y="26" width="240" height="8" as="geometry" />
        </mxCell>
        <mxCell id="6fnRTUx4v9x85AcMWszh-32" value="+ void load_facilities()&lt;div&gt;+ facility load_one_facility(index:int)&lt;/div&gt;&lt;div&gt;+ void save_facilities(facility_data)&lt;/div&gt;&lt;div&gt;+ void update_facility(facility_data, index)&lt;/div&gt;&lt;div&gt;+ void delete_facility(index)&lt;/div&gt;&lt;div&gt;+ facility_data&amp;nbsp;get_facility_data(index)&lt;/div&gt;&lt;div&gt;+facility_data&amp;nbsp;get_edited_facility_data()&lt;/div&gt;" style="text;strokeColor=none;fillColor=none;align=left;verticalAlign=top;spacingLeft=4;spacingRight=4;overflow=hidden;rotatable=0;points=[[0,0.5],[1,0.5]];portConstraint=eastwest;whiteSpace=wrap;html=1;" vertex="1" parent="6fnRTUx4v9x85AcMWszh-29">
          <mxGeometry y="34" width="240" height="116" as="geometry" />
        </mxCell>
        <mxCell id="6fnRTUx4v9x85AcMWszh-34" value="Controller" style="rounded=0;whiteSpace=wrap;html=1;" vertex="1" parent="WIyWlLk6GJQsqaUBKTNV-1">
          <mxGeometry x="269" y="320" width="71" height="30" as="geometry" />
        </mxCell>
        <mxCell id="6fnRTUx4v9x85AcMWszh-37" value="FacilityView" style="swimlane;fontStyle=1;align=center;verticalAlign=top;childLayout=stackLayout;horizontal=1;startSize=26;horizontalStack=0;resizeParent=1;resizeParentMax=0;resizeLast=0;collapsible=1;marginBottom=0;whiteSpace=wrap;html=1;" vertex="1" parent="WIyWlLk6GJQsqaUBKTNV-1">
          <mxGeometry x="289" y="75" width="250" height="170" as="geometry" />
        </mxCell>
        <mxCell id="6fnRTUx4v9x85AcMWszh-39" value="" style="line;strokeWidth=1;fillColor=none;align=left;verticalAlign=middle;spacingTop=-1;spacingLeft=3;spacingRight=3;rotatable=0;labelPosition=right;points=[];portConstraint=eastwest;strokeColor=inherit;" vertex="1" parent="6fnRTUx4v9x85AcMWszh-37">
          <mxGeometry y="26" width="250" height="8" as="geometry" />
        </mxCell>
        <mxCell id="6fnRTUx4v9x85AcMWszh-40" value="+void createButtons&lt;div&gt;+void&amp;nbsp;show_more_details_by_index(index)&lt;/div&gt;&lt;div&gt;+void&amp;nbsp;show_more_details()&lt;/div&gt;&lt;div&gt;+void load_facilities()&lt;/div&gt;&lt;div&gt;+void add_facilitiy(window)&lt;/div&gt;&lt;div&gt;+void open_add_window()&lt;/div&gt;&lt;div&gt;+void&amp;nbsp;save_edited_facility(window, index)&lt;/div&gt;&lt;div&gt;+void update_facilities_lsit()&lt;/div&gt;" style="text;strokeColor=none;fillColor=none;align=left;verticalAlign=top;spacingLeft=4;spacingRight=4;overflow=hidden;rotatable=0;points=[[0,0.5],[1,0.5]];portConstraint=eastwest;whiteSpace=wrap;html=1;" vertex="1" parent="6fnRTUx4v9x85AcMWszh-37">
          <mxGeometry y="34" width="250" height="136" as="geometry" />
        </mxCell>
        <mxCell id="6fnRTUx4v9x85AcMWszh-43" value="View" style="rounded=0;whiteSpace=wrap;html=1;" vertex="1" parent="WIyWlLk6GJQsqaUBKTNV-1">
          <mxGeometry x="269" y="10" width="70" height="30" as="geometry" />
        </mxCell>
        <mxCell id="6fnRTUx4v9x85AcMWszh-45" value="" style="endArrow=classic;html=1;rounded=0;entryX=0.792;entryY=0.999;entryDx=0;entryDy=0;entryPerimeter=0;exitX=0.75;exitY=0;exitDx=0;exitDy=0;" edge="1" parent="WIyWlLk6GJQsqaUBKTNV-1" source="6fnRTUx4v9x85AcMWszh-35" target="6fnRTUx4v9x85AcMWszh-40">
          <mxGeometry width="50" height="50" relative="1" as="geometry">
            <mxPoint x="330" y="370" as="sourcePoint" />
            <mxPoint x="380" y="320" as="targetPoint" />
          </mxGeometry>
        </mxCell>
        <mxCell id="6fnRTUx4v9x85AcMWszh-46" value="Controller interacts with View" style="text;html=1;align=center;verticalAlign=middle;whiteSpace=wrap;rounded=0;" vertex="1" parent="WIyWlLk6GJQsqaUBKTNV-1">
          <mxGeometry x="490" y="300" width="111" height="30" as="geometry" />
        </mxCell>
        <mxCell id="6fnRTUx4v9x85AcMWszh-48" value="" style="endArrow=classic;html=1;rounded=0;entryX=0.5;entryY=0;entryDx=0;entryDy=0;exitX=0.502;exitY=1.01;exitDx=0;exitDy=0;exitPerimeter=0;" edge="1" parent="WIyWlLk6GJQsqaUBKTNV-1" source="6fnRTUx4v9x85AcMWszh-32" target="6fnRTUx4v9x85AcMWszh-11">
          <mxGeometry width="50" height="50" relative="1" as="geometry">
            <mxPoint x="330" y="590" as="sourcePoint" />
            <mxPoint x="380" y="540" as="targetPoint" />
          </mxGeometry>
        </mxCell>
        <mxCell id="6fnRTUx4v9x85AcMWszh-49" value="Controller manages Model" style="text;html=1;align=center;verticalAlign=middle;whiteSpace=wrap;rounded=0;" vertex="1" parent="WIyWlLk6GJQsqaUBKTNV-1">
          <mxGeometry x="410" y="589" width="120" height="30" as="geometry" />
        </mxCell>
        <mxCell id="6fnRTUx4v9x85AcMWszh-50" value="" style="endArrow=classic;html=1;rounded=0;entryX=0.25;entryY=0;entryDx=0;entryDy=0;" edge="1" parent="WIyWlLk6GJQsqaUBKTNV-1" target="6fnRTUx4v9x85AcMWszh-29">
          <mxGeometry width="50" height="50" relative="1" as="geometry">
            <mxPoint x="354" y="281" as="sourcePoint" />
            <mxPoint x="410" y="310" as="targetPoint" />
          </mxGeometry>
        </mxCell>
        <mxCell id="6fnRTUx4v9x85AcMWszh-51" value="View notifies Controller of events" style="text;html=1;align=center;verticalAlign=middle;whiteSpace=wrap;rounded=0;" vertex="1" parent="WIyWlLk6GJQsqaUBKTNV-1">
          <mxGeometry x="349" y="300" width="120" height="30" as="geometry" />
        </mxCell>
      </root>
    </mxGraphModel>
  </diagram>
</mxfile>
